<svg xmlns="http://www.w3.org/2000/svg" viewBox="0 0 500.38 478.47"><defs><style>.cls-1,.cls-2{fill:none;stroke:#0495fe;stroke-width:1.15px;}.cls-2{stroke-dasharray:13.15;opacity:0.2;isolation:isolate;}</style></defs><title>triangles_1</title><g id="Layer_2" data-name="Layer 2"><g id="Layer_1-2" data-name="Layer 1"><path class="cls-1" d="M168.67,309.37H331l-81.18-140.8Z"/><path class="cls-2" d="M499.8,311.29c0,92-74.5,166.61-166.41,166.61S167,403.3,167,311.29s74.5-166.62,166.4-166.62S499.8,219.27,499.8,311.29Z"/><path class="cls-2" d="M333.39,311.29c0,92-74.5,166.61-166.41,166.61S.58,403.3.58,311.29,75.08,144.67,167,144.67s166.4,74.6,166.4,166.62Z"/><path class="cls-2" d="M416.4,167c0,91.91-74.41,166.41-166.21,166.41S84,258.91,84,167,158.39.58,250.19.58,416.4,75.08,416.4,167Z"/></g></g></svg>